<svg width="55" height="55" viewBox="0 0 55 55" fill="none" xmlns="http://www.w3.org/2000/svg">
<path d="M49.3345 11.0412C49.405 11.6852 50.7845 12.5198 51.1046 13.1369C51.7279 14.3384 52.1795 15.3901 52.4807 16.7869C53.1831 20.045 53.1957 22.8518 52.166 26.6822C51.2222 30.1935 49.0577 32.8553 46.1883 34.6623C44.0645 35.9998 40.7604 36.2828 38.3945 37.0829" stroke="#946968" stroke-width="4" stroke-linecap="round"/>
<path d="M38.3945 38.163C38.3945 37.8794 38.7836 39.2493 38.9051 39.4853C39.2101 40.0777 39.4637 40.8126 39.6709 41.4687C40.1153 42.8752 40.3204 44.1777 40.4231 45.7081C40.5609 47.7602 40.4231 50.7245 40.1814 52.7079" stroke="#946968" stroke-width="4" stroke-linecap="round"/>
<path d="M14.7451 11.0412C14.6746 11.712 13.5046 12.5407 13.1845 13.1834C12.5612 14.4349 12.1096 15.5303 11.8084 16.9851C11.1059 20.3786 11.0934 23.302 12.123 27.2917C13.0669 30.9488 15.2313 33.7213 18.1008 35.6034C20.2246 36.9964 23.5287 37.2912 25.8945 38.1246" stroke="#946968" stroke-width="4" stroke-linecap="round"/>
<path d="M25.8945 38.163C25.8945 37.8794 25.5055 39.2493 25.384 39.4853C25.079 40.0777 24.8254 40.8126 24.6182 41.4687C24.1738 42.8752 23.9687 44.1777 23.8659 45.7081C23.7281 47.7602 23.8659 50.7245 24.1076 52.7079" stroke="#946968" stroke-width="4" stroke-linecap="round"/>
<path d="M22.7694 48.5412C21.1302 48.5412 19.491 48.5412 17.8518 48.5412C16.8014 48.5412 15.2468 48.1926 14.3104 47.7674C12.8893 47.1221 12.3677 47.1058 10.7487 45.4517C9.77736 44.4593 9.26794 43.9388 8.4822 43.136C7.51084 42.1436 7.18705 41.4819 6.21568 40.8203C5.60418 40.4038 3.4862 39.6337 2.97778 39.1662" stroke="#946968" stroke-width="4" stroke-linecap="round"/>
<path d="M14.7389 11.0412C14.7389 8.81012 14.4712 6.64376 14.4712 4.41644C14.4712 4.02855 14.2815 2.70789 14.7835 2.70789C15.4808 2.70789 16.1781 2.70789 16.8754 2.70789C17.537 2.70789 18.1692 3.01657 18.7739 3.30312C19.3787 3.58968 19.9002 3.94455 20.4941 4.09126C21.4816 4.41644 22.0436 4.94774 22.7694 5.48566" stroke="#946968" stroke-width="4" stroke-linecap="round"/>
<path d="M48.811 11.0412C48.811 9.88053 48.662 8.07579 48.662 6.91511C48.662 6.02193 48.8614 4.85313 48.5193 3.99121C48.4026 3.69721 48.238 2.8599 47.8483 2.752C47.2876 2.59677 46.6687 2.88315 46.1891 3.11557C45.4504 3.4735 45.1193 3.5609 44.4481 3.88613C44.0175 4.09477 42.9455 4.72585 41.9618 5.23553C41.4276 5.51229 41.092 5.83752 40.6197 6.06508C40.1843 6.21849 39.8374 6.51579 39.436 6.71028" stroke="#946968" stroke-width="4" stroke-linecap="round"/>
<path d="M23.811 6.4967C23.8497 6.09283 25.1346 5.43572 25.4835 5.2558C26.7407 4.60752 27.0354 4.47057 27.7173 4.22968C29.3474 3.65383 30.8793 3.75667 32.5666 3.75667C35.044 3.75667 37.3042 5.22493 39.436 6.87454" stroke="#946968" stroke-width="4" stroke-linecap="round"/>
</svg>
